<?xml version="1.0" encoding="utf-8"?>
<!-- Generator: Adobe Illustrator 27.5.0, SVG Export Plug-In . SVG Version: 6.00 Build 0)  -->
<svg version="1.1" xmlns="http://www.w3.org/2000/svg" xmlns:xlink="http://www.w3.org/1999/xlink" x="0px" y="0px"
	 viewBox="0 0 1200 628" style="enable-background:new 0 0 1200 628;" xml:space="preserve">
<g id="BACKGROUND">
	<g>
		<rect style="fill:#EFD2E3;" width="1200" height="628"/>
		<g>
			<defs>
				<rect id="SVGID_1_" width="1200" height="628"/>
			</defs>
			<clipPath id="SVGID_00000054973986072479004710000009537127075177540481_">
				<use xlink:href="#SVGID_1_"  style="overflow:visible;"/>
			</clipPath>
			<path style="clip-path:url(#SVGID_00000054973986072479004710000009537127075177540481_);fill:#F4E6E9;" d="M678.292,583.777
				c0.389-6.156,0.297-11.851-0.317-16.695c-3.48-27.505-23.6-49.292-49.506-58.044c-6.359-2.148-12.928-3.316-19.537-3.577
				c1.479-11.337-2.531-23.553-10.416-32.3c-8.296-9.203-19.53-13.19-31.315-13.924c2.474-6.456,3.307-13.566,2.011-20.705
				c-2.107-11.595-9.236-20.477-18.575-25.853c4.471-5.966,7.213-13.207,7.312-20.879c0.177-13.79-8.005-26.215-19.706-32.671
				c4.929-31.054-10.869-65.155-39.931-78.768c-23.254-10.893-46.024-7.872-65.172,0.605c15.172-22.566,18.65-40.51,14.288-67.619
				c-4.418-27.462-17.299-41.93-30.391-51.46c4.42-14.393,2.289-30.598-6.945-42.929c-9.381-12.525-24.066-19.053-39.196-19.016
				c-5.471-22.008-20.624-40.799-42.293-49.355c-18.49-7.301-51.58-4.836-68.98,3.859c-1.803-43.68-18.08-77.63-54.629-101.299
				L-45.27-47.917c-3.387,6.423-5.414,699.388-5.414,699.388s718.808,5.221,725.828,5.221c20.179,0,36.537-16.358,36.537-36.537
				C711.681,601.039,696.994,585.377,678.292,583.777z"/>
			<path style="clip-path:url(#SVGID_00000054973986072479004710000009537127075177540481_);fill:#F4E6E9;" d="M1267.281,23.969
				c-1.13-17.303-12.385-38.246-30.553-38.575c-10.297-17.551-32.85-25.396-51.388-13.814c-4.905,3.064-8.752,7.011-11.565,11.463
				c-2.112-0.806-4.276-1.392-6.46-1.769c-4.608-8.494-11.751-14.961-20.9-15.135c-9.014-16.173-28.758-23.403-44.985-12.729
				c-4.293,2.823-7.661,6.46-10.125,10.563c-14.82-5.952-32.526,1.062-39.789,16.654c-1.958,4.205-3.029,8.589-3.324,12.957
				c-12.819,0.587-24.396,10.876-24.308,26.261c0.077,13.586,9.208,23.204,20.204,25.551c0.077,0.237,0.171,0.469,0.254,0.705
				c-0.191,1.09-0.322,2.196-0.322,3.331c0,12.39,11.806,22.434,26.369,22.434c5.759,0,11.069-1.589,15.406-4.254
				c4.676,10.086,15.855,15.211,27.417,15.483c0,0.004-0.001,0.008-0.001,0.012c0,6.208,5.033,11.241,11.241,11.241
				c2.6,0,4.986-0.891,6.891-2.373c2.398,9.098,12.203,15.916,23.949,15.916c6.581,0,12.544-2.151,16.948-5.632
				c10.488,10.532,30.041,12.721,44.949,6.93c20.271-7.875,32.615-26.326,33.725-46.898
				C1262.171,53.908,1268.239,38.665,1267.281,23.969z"/>
			<path style="clip-path:url(#SVGID_00000054973986072479004710000009537127075177540481_);fill:#F4E6E9;" d="M729.233-27.45
				H436.628c-13.716,5.799-23.125,19.983-19.389,36.466c3.662,16.162,17.814,25.059,32.428,24.771
				c0.16,0.261,0.34,0.512,0.509,0.768c0.043,1.352,0.167,2.706,0.465,4.058c3.25,14.759,20.916,23.413,39.459,19.329
				c2.839-0.625,5.524-1.521,8.035-2.631c6.333,6.991,16.463,10.533,26.887,8.603c-0.094,2.328,0.07,4.69,0.591,7.055
				c3.514,15.955,20.307,25.818,37.508,22.029c4.694-1.034,8.908-3.001,12.519-5.604c6.124,13.411,21.848,21.073,37.91,17.534
				c17.069-3.76,28.471-18.832,26.885-34.617c14.964,3.049,33.008-0.6,46.373-9.081c23.743-15.067,34.619-40.509,30.635-65.325
				C723.456-10.609,727.397-18.774,729.233-27.45z"/>
			<path style="clip-path:url(#SVGID_00000054973986072479004710000009537127075177540481_);fill:#E9B9D5;" d="M293.348,618.009
				c0.409-2.01,0.639-4.086,0.639-6.219c0-17.247-13.981-31.23-31.23-31.23c-5.924,0-11.444,1.68-16.164,4.546
				c-2.79-2.533-6.482-4.09-10.547-4.09c-0.487,0-0.967,0.03-1.442,0.073c-4.968-9.354-13.555-16.633-24.404-19.005
				c-3.427-0.749-6.904-0.925-10.332-0.643c0.658-4.358,0.637-8.829-0.388-13.405c-2.296-10.263-9.284-18.983-18.694-22.671
				c-1.651-26.342-24.16-50.723-52.271-48.003c-14.368,1.39-26.649,9.525-34.608,20.768c-3.967-7.656-9.395-14.362-17.156-19.046
				c-8.065-4.868-17.432-6.867-26.213-5.715c0.273-7.016-0.976-14.056-4.193-20.687c-5.957-12.281-19.035-20.482-32.675-20.749
				c-15.916-0.312-22.851,11.046-25.597,24.147c-1.523,1.523,1.529,103.542,0.425,178.048c18.906-0.21,319.181,7.627,319.181-0.116
				C307.68,625.717,301.407,618.892,293.348,618.009z"/>
		</g>
	</g>
</g>
<g id="OBJECTS">
	<g>
		<g>
			<g>
				<path style="fill:#E79AD8;" d="M389.72,455.671c0.34,2.739,0.667,5.486,0.991,8.207c2.905,24.591,5.077,47.472,4.085,48.011
					c-1.03,0.55-29.698,4.428-59.606,8.206c-3.166,0.405-6.347,0.8-9.507,1.198c-29.332,3.655-57.172,6.871-58.515,6.413
					c-1.499-0.509-5.244-24.593-8.481-47.466c-0.387-2.759-0.767-5.506-1.138-8.189c-2.438-17.625-4.341-32.613-4.341-32.613
					s-3.72-19.266,0.76-20.081c8.196-1.497,32.707-4.892,58.071-8.158c3.166-0.405,6.345-0.812,9.505-1.211
					c29.985-3.788,58.47-7.038,59.832-6.382C382.801,404.294,386.523,429.661,389.72,455.671z"/>
			</g>
			<g>
				<path style="fill:#8A80ED;" d="M321.545,409.988l13.645,110.107c-3.166,0.405-6.347,0.8-9.507,1.198L312.04,411.199
					C315.206,410.793,318.385,410.387,321.545,409.988z"/>
			</g>
			<g>
				<path style="fill:#8A80ED;" d="M389.72,455.671c0.34,2.739,0.667,5.486,0.991,8.207L258.687,480.24
					c-0.387-2.759-0.767-5.506-1.138-8.189L389.72,455.671z"/>
			</g>
		</g>
		<g>
			<g>
				<path style="fill:#6860D3;" d="M326.856,224.852c2.726,22.167-12.046,42.474-24.047,56.282
					c-2.185,2.514-11.313,11.568-14.892,12.39c-5.744,1.318-20.768-8.109-28.634-13.191c-11.356-7.733-20.605-17.71-25.972-30.644
					c-6.616-15.37-1.943-37.405,16.03-41.045c10.298-2.755,21.875,0.984,27.734,10.095c5.242-6.578,12.226-12.151,20.285-14.78
					C311.642,199.692,325.022,209.946,326.856,224.852z"/>
			</g>
			<g>
				<path style="fill:#8A80ED;" d="M298.36,166.406c12.564,24.186,5.552,53.065-1.314,73.463c-1.25,3.714-7.102,17.58-10.584,19.909
					c-5.587,3.737-25.801-1.15-36.447-3.875c-15.543-4.386-29.802-12.149-41.183-24.79c-13.78-14.93-18.352-41.846-0.658-52.988
					c9.847-7.147,23.889-7.395,34.136,0.701c2.761-9.533,7.829-18.599,15.329-24.73C271.1,143.674,289.911,150.143,298.36,166.406z"
					/>
			</g>
			<g>
				<path style="fill:#D475B1;" d="M264.373,235.364c13.284,17.954,10.421,42.902,6.772,60.828
					c-0.665,3.264-4.153,15.638-6.864,18.115c-4.351,3.974-22.069,3.164-31.418,2.613c-13.691-1.141-26.654-5.274-37.691-13.891
					c-13.324-10.123-20.104-31.603-6.25-43.618c7.608-7.467,19.526-9.91,29.111-4.864c1.325-8.306,4.661-16.595,10.382-22.85
					C238.745,220.951,255.439,223.291,264.373,235.364z"/>
			</g>
			<g>
				<path style="fill:#D475B1;" d="M398.948,263.811c-7.579,21.009-29.93,32.456-46.872,39.356
					c-3.085,1.256-15.318,5.213-18.882,4.329c-5.72-1.418-14.867-16.614-19.591-24.7c-6.64-12.028-10.386-25.107-9.333-39.07
					c1.039-16.701,15.159-34.251,32.838-29.382c10.433,2.193,19.072,10.757,20.185,21.532c7.647-3.502,16.396-5.32,24.773-4.026
					C396.736,234.492,404.044,249.684,398.948,263.811z"/>
			</g>
			<g>
				<path style="fill:#8A80ED;" d="M395.326,224.715c-8.164,20.789-30.827,31.605-47.956,38.028
					c-3.119,1.169-15.458,4.782-18.996,3.798c-5.678-1.578-14.397-17.024-18.891-25.239c-6.301-12.209-9.679-25.388-8.236-39.316
					c1.506-16.665,16.112-33.813,33.648-28.451c10.367,2.484,18.764,11.287,19.575,22.089c7.742-3.286,16.538-4.859,24.876-3.331
					C393.936,195.345,400.815,210.735,395.326,224.715z"/>
			</g>
			<g>
				<path style="fill:#E79AD8;" d="M346.566,144.587c0.715,27.245-18.226,50.145-33.325,65.483
					c-2.749,2.792-14.078,12.7-18.228,13.271c-6.659,0.916-22.697-12.323-31.078-19.432c-12.057-10.744-21.482-23.964-26.184-40.31
					c-5.858-19.454,1.807-45.657,22.593-47.934c11.982-2.118,24.717,3.803,30.389,15.566c6.654-7.364,15.177-13.299,24.604-15.531
					C332.001,112.218,346.085,126.266,346.566,144.587z"/>
			</g>
			<g>
				<path style="fill:#D475B1;" d="M260.654,329.886c2.712,1.981,15.214-5.93,13.61-9.305c-1.604-3.375-12.797-8.337-14.77-6.405
					C257.521,316.108,257.942,327.905,260.654,329.886z"/>
			</g>
			<g>
				<path style="fill:#D475B1;" d="M321.906,317.12c0.624,3.301,15.155,6.08,16.293,2.521c1.138-3.559-3.634-14.835-6.394-14.775
					C329.044,304.925,321.282,313.82,321.906,317.12z"/>
			</g>
			<g>
				<path style="fill:#8A80ED;" d="M316.513,275.079c0.178,3.354,14.21,8.044,15.812,4.668c1.602-3.376-1.626-15.187-4.37-15.495
					C325.212,263.944,316.335,271.725,316.513,275.079z"/>
			</g>
			<g>
				<path style="fill:#8A80ED;" d="M283.975,274.26c2.565,2.169,15.597-4.834,14.236-8.315c-1.36-3.481-12.173-9.224-14.278-7.438
					C281.828,260.294,281.41,272.091,283.975,274.26z"/>
			</g>
			<g>
				<path style="fill:#6860D3;" d="M281.058,306.687c1.672,2.913,16.311,0.769,16.218-2.967c-0.093-3.736-8.302-12.82-10.89-11.858
					C283.798,292.825,279.386,303.774,281.058,306.687z"/>
			</g>
			<g>
				<path style="fill:#E79AD8;" d="M285.064,238.242c1.48,3.55,18.42,3.222,18.852-1.036c0.432-4.258-7.586-15.76-10.665-15.039
					C290.172,222.888,283.583,234.692,285.064,238.242z"/>
			</g>
			<g>
				<path style="fill:#3D3277;" d="M316.289,406.525c-0.368,0.046-0.74-0.125-0.942-0.453c-0.47-0.763-46.908-76.086-47.959-77.701
					c-0.015-0.02-0.029-0.042-0.042-0.063c-0.275-0.458-0.128-1.052,0.33-1.328c0.822-0.493,1.192,0.104,1.866,1.187l1.529,2.467
					c1.316,2.125,3.192,5.161,5.443,8.806c4.502,7.288,10.5,17.009,16.497,26.73c8.534,13.834,17.065,27.67,21.277,34.501
					l-23.458-127.854c-0.096-0.526,0.252-1.029,0.777-1.125c0.525-0.096,1.03,0.251,1.126,0.777l24.388,132.923
					c0.084,0.458-0.17,0.91-0.604,1.077C316.442,406.497,316.366,406.516,316.289,406.525z"/>
			</g>
			<g>
				<path style="fill:#3D3277;" d="M319.632,403.735c-0.034,0.004-0.068,0.007-0.103,0.007c-0.485,0.009-0.901-0.344-0.973-0.824
					c-8.172-54.519-23.787-158.186-24.518-161.141c-0.157-0.464,0.06-0.981,0.515-1.189c0.486-0.22,1.06-0.008,1.282,0.478
					c0.544,1.191,16.956,110.369,23.551,154.335l8.535-74.373c0.061-0.53,0.539-0.91,1.071-0.851
					c0.531,0.061,0.912,0.541,0.851,1.071l-9.368,81.636C320.422,403.333,320.071,403.681,319.632,403.735z"/>
			</g>
			<g>
				<path style="fill:#3D3277;" d="M315.834,402.849c-0.007,0.001-0.013,0.002-0.019,0.002c-0.469,0.049-0.904-0.248-1.031-0.702
					l-26.317-94.115c-0.144-0.515,0.156-1.049,0.671-1.192c0.513-0.149,1.048,0.156,1.192,0.671l24.794,88.666l7.683-116.342
					c0.035-0.532,0.495-0.934,1.029-0.902c0.533,0.036,0.937,0.496,0.901,1.029l-8.056,121.988
					C316.649,402.416,316.293,402.792,315.834,402.849z"/>
			</g>
		</g>
		<g>
			<g>
				<path style="fill:#8A80ED;" d="M341.773,381.241c-6.074,0.198-18.992,13.05-23.081,17.276l0,0c0,0-0.857-0.898-4.166-0.488
					c-1.614,0.2-3.033,0.953-3.626,1.305c-5.2-3.215-20.537-12.269-26.399-10.995c-7.108,1.544-4.901,27.528,1.957,26.599
					c5.587-0.757,20.376-2.549,25.663-3.187l0,0l0.006-0.001c1.198-0.145,1.91-0.23,1.91-0.23l-0.001-0.007l4.754-0.589l0.001,0.007
					c0,0,20.702-2.645,27.578-3.418C353.245,406.739,349.043,381.003,341.773,381.241z"/>
			</g>
			<g>
				<path style="fill:#3D3277;" d="M321.664,410.948l-9.51,1.179c-0.458,0.057-0.891-0.218-1.037-0.655
					c-0.805-2.425-3.249-10.518-0.895-12.828c3.353-3.292,8.142-3.242,10.51-1.129c2.327,2.077,1.889,10.807,1.778,12.536
					C322.481,410.514,322.126,410.891,321.664,410.948z M312.712,410.109l7.913-0.981c0.203-4.352-0.167-9.267-1.179-10.171
					c-1.68-1.499-5.325-1.43-7.867,1.066C310.602,400.982,311.387,405.847,312.712,410.109z"/>
			</g>
			<g>
				<path style="fill:#3D3277;" d="M310.734,407.214c-0.028,0.004-0.056,0.006-0.085,0.007c-1.57,0.056-9.492,0.202-11.27-2.409
					c-0.333-0.488-0.631-1.296-0.164-2.369c0.368-0.846,1.025-1.405,1.9-1.615c3.333-0.803,9.431,4.116,10.114,4.679
					c0.31,0.255,0.43,0.677,0.301,1.057C311.411,406.918,311.099,407.168,310.734,407.214z M301.737,402.679
					c-0.059,0.007-0.116,0.017-0.171,0.031c-0.284,0.068-0.451,0.215-0.578,0.505c-0.139,0.32-0.059,0.438-0.011,0.508
					c0.597,0.878,3.551,1.41,6.702,1.549C305.562,403.834,303.089,402.511,301.737,402.679z"/>
			</g>
			<g>
				<path style="fill:#3D3277;" d="M322.174,405.796c-0.365,0.045-0.729-0.122-0.931-0.435c-0.218-0.338-0.205-0.775,0.034-1.099
					c0.525-0.714,5.239-6.96,8.666-7.007c0.9-0.01,1.673,0.371,2.237,1.102c0.715,0.927,0.623,1.783,0.419,2.337
					c-1.087,2.965-8.805,4.758-10.341,5.087C322.23,405.788,322.203,405.792,322.174,405.796z M329.792,399.202
					c-1.352,0.168-3.427,2.054-5.129,3.966c3.021-0.904,5.756-2.142,6.121-3.139c0.029-0.08,0.078-0.214-0.135-0.49
					c-0.194-0.251-0.392-0.352-0.684-0.349C329.909,399.191,329.851,399.195,329.792,399.202z"/>
			</g>
		</g>
	</g>
	<g>
		<g>
			<path style="fill:#FFFFFF;" d="M1096.232,560.822c7.91,1.202,6.389,3.868,8.616,11.401c1.639-7.313,0.954-10.308,8.864-11.51
				c-7.365-1.793-6.561-2.223-8.864-10.516C1102.717,558.745,1103.277,558.92,1096.232,560.822z"/>
		</g>
		<g>
			<path style="fill:#FFFFFF;" d="M1136.892,318.977c7.91,1.202,6.389,3.868,8.616,11.401c1.639-7.313,0.954-10.308,8.864-11.51
				c-7.365-1.793-6.561-2.223-8.864-10.516C1143.376,316.9,1143.936,317.074,1136.892,318.977z"/>
		</g>
		<g>
			<path style="fill:#FFFFFF;" d="M1047.547,208.248c7.91,1.202,6.389,3.868,8.616,11.401c1.639-7.313,0.955-10.308,8.864-11.51
				c-7.365-1.793-6.561-2.223-8.864-10.516C1054.032,206.172,1054.592,206.346,1047.547,208.248z"/>
		</g>
		<g>
			<path style="fill:#FFFFFF;" d="M1063.133,530.742c14.665,2.229,11.846,7.172,15.974,21.138
				c3.039-13.56,1.77-19.112,16.435-21.341c-13.656-3.325-12.165-4.121-16.435-19.498
				C1075.156,526.891,1076.194,527.215,1063.133,530.742z"/>
		</g>
		<g>
			<path style="fill:#FFFFFF;" d="M697.827,345.86c14.665,2.228,11.846,7.172,15.974,21.138c3.039-13.559,1.77-19.112,16.435-21.34
				c-13.656-3.325-12.165-4.121-16.435-19.499C709.849,342.01,710.888,342.333,697.827,345.86z"/>
		</g>
		<g>
			<path style="fill:#BEB9FC;" d="M444.951,420.081c10.229,1.554,8.263,5.002,11.142,14.744c2.12-9.458,1.234-13.331,11.464-14.885
				c-9.525-2.319-8.485-2.874-11.464-13.6C453.337,417.396,454.062,417.621,444.951,420.081z"/>
		</g>
		<g>
			<path style="fill:#E9B9D5;" d="M136.749,349.255c10.229,1.554,8.263,5.002,11.142,14.744c2.119-9.458,1.234-13.331,11.463-14.885
				c-9.525-2.319-8.485-2.874-11.463-13.6C145.135,346.57,145.859,346.795,136.749,349.255z"/>
		</g>
		<g>
			<path style="fill:#F4E6E9;" d="M83.015,560.708c10.229,1.554,8.263,5.002,11.142,14.744c2.119-9.458,1.234-13.331,11.463-14.885
				c-9.525-2.319-8.485-2.874-11.463-13.6C91.4,558.023,92.125,558.248,83.015,560.708z"/>
		</g>
		<g>
			<path style="fill:#FFFFFF;" d="M520.094,147.909c10.229,1.554,8.263,5.002,11.142,14.744c2.12-9.458,1.234-13.331,11.463-14.885
				c-9.525-2.319-8.485-2.874-11.463-13.6C528.48,145.223,529.204,145.449,520.094,147.909z"/>
		</g>
		<g>
			<path style="fill:#FFFFFF;" d="M854.421,49.816c10.229,1.554,8.263,5.002,11.142,14.744c2.12-9.458,1.234-13.331,11.463-14.885
				c-9.525-2.319-8.485-2.874-11.463-13.6C862.807,47.13,863.531,47.356,854.421,49.816z"/>
		</g>
		<g>
			<path style="fill:#E9B9D5;" d="M569.608,551.161c14.665,2.229,11.846,7.172,15.974,21.138c3.039-13.559,1.77-19.112,16.435-21.34
				c-13.656-3.325-12.165-4.121-16.435-19.498C581.631,547.311,582.669,547.634,569.608,551.161z"/>
		</g>
		<g>
			<path style="fill:#FFFFFF;" d="M492.501,185.718c14.665,2.228,11.846,7.172,15.974,21.138c3.039-13.559,1.77-19.112,16.435-21.34
				c-13.656-3.325-12.165-4.121-16.435-19.499C504.524,181.868,505.562,182.191,492.501,185.718z"/>
		</g>
		<g>
			<path style="fill:#BEB9FC;" d="M83.693,137.627c14.665,2.228,11.846,7.172,15.974,21.138c3.039-13.559,1.77-19.112,16.435-21.34
				c-13.656-3.325-12.165-4.121-16.435-19.499C95.715,133.776,96.754,134.1,83.693,137.627z"/>
		</g>
	</g>
	<path style="fill:#E9B9D5;" d="M1106.64,372.369c0.79-2.65,1.223-5.457,1.223-8.369c0-9.215-4.267-17.4-10.881-22.673
		c6.386-8.237,10.776-18.102,12.259-29.004c1.935-14.212-1.307-28.048-8.156-39.767c6.135-5.284,10.041-13.169,10.041-21.992
		c0-10.576-5.615-19.795-13.959-24.805c9.668-25.489,8.152-55.579-6.826-78.625c-20.58-31.664-60.773-44.961-95.823-34.831
		c-14.291-3.639-29.316-3.301-44.399,3.153c-0.515,0.221-1.027,0.478-1.542,0.716c-4.837-5.645-11.937-9.229-19.873-9.229
		c-4.132,0-8.027,0.995-11.509,2.719c-3.744-1.787-7.385-3.38-10.67-4.769c-18.313-7.74-39.92-10.829-56.488-0.95
		c-5.204-4.078-11.702-6.529-18.778-6.529c-6.792,0-13.052,2.262-18.147,6.049c-23.898-16.185-52.493-24.641-80.286-11.169
		c-23.512,11.396-35.892,42.404-25.116,65.689c-8.783,4.027-15.401,12.861-16.341,23.886c-1.333,15.634,7.076,27.604,17.777,37.307
		c-2.709-2.456-21.746,12.364-24.201,14.573c-7.146,6.431-13.042,14.391-16.166,23.441c-6.78,19.651,1.721,41.625,18.55,53.757
		c-16.493,8.261-27.789,25.037-27.789,44.404c0,27.156,22.197,49.227,49.815,49.844c-1.098,3.693-1.697,7.592-1.697,11.632
		c0,22.993,19.06,41.633,42.572,41.633c7.918,0,15.326-2.121,21.676-5.802c3.662,5.394,9.921,8.953,17.037,8.953
		c3.561,0,6.888-0.922,9.802-2.489c10.363,16.057,28.468,26.707,49.089,26.707c22.384,0,41.81-12.544,51.576-30.938
		c4.872,4.029,10.654,6.965,16.69,8.344c17.88,4.086,34.841-3.978,48.846-14.821c0.815,0.559,1.657,1.058,2.513,1.52
		c10.446,9.834,24.543,15.877,40.068,15.877c1.922,0,3.823-0.098,5.697-0.279c12.681,3.974,26.44,4.692,40.092,1.263
		C1091.374,457.237,1125.809,411.744,1106.64,372.369z"/>
</g>
<g id="TEXTS">
	<text transform="matrix(1 0 0 1 738.8616 403.4973)"><tspan x="0" y="0" style="fill:#6860D3; font-family:'AlegreyaSansSC-Black'; font-size:96.9432px;"> </tspan><tspan x="20.551" y="0" style="fill:#6860D3; font-family:'AlegreyaSansSC-Black'; font-size:95.6494px;">50</tspan><tspan x="118.685" y="0" style="fill:#6860D3; font-family:'AlegreyaSansSC-Black'; font-size:71.568px;">% </tspan><tspan x="190.537" y="0" style="fill:#6860D3; font-family:'AlegreyaSansSC-Black'; font-size:95.6494px;">off</tspan></text>
	<text transform="matrix(1 0 0 1 743.1829 178.218)" style="fill:#C0447C; font-family:'Itim-Regular'; font-size:46.7493px;">Valentine’s Day</text>
	
		<text transform="matrix(1 0 0 1 743.5208 327.0793)" style="fill:#6860D3; font-family:'AlegreyaSansSC-Black'; font-size:141.6292px;">SALE</text>
	<g>
		
			<text transform="matrix(1 0 0 1 775.6057 562.9933)" style="fill:#C0457D; font-family:'AlegreyaSansSC-Bold'; font-size:41.4445px;">SHOP ONLINE</text>
	</g>
</g>
</svg>
